<svg xmlns="http://www.w3.org/2000/svg" width="24" height="24" viewBox="0 0 24 24" fill="white">
  <path d="M12.012 2c-5.506 0-9.989 4.478-9.99 9.984 0 1.766.459 3.49 1.332 5.003l-1.416 5.172 5.291-1.387c1.46.797 3.109 1.216 4.781 1.217h.004c5.506 0 9.99-4.478 9.99-9.985 0-2.667-1.038-5.174-2.924-7.06-1.886-1.887-4.393-2.925-7.058-2.925zm0 1.767c4.529 0 8.217 3.687 8.218 8.217 0 4.53-3.688 8.218-8.218 8.218-1.444 0-2.862-.382-4.103-1.104l-.294-.171-3.05.799.813-2.973-.187-.298c-.792-1.265-1.21-2.732-1.21-4.238 0-4.53 3.688-8.217 8.218-8.217zm-4.225 4.303c-.237 0-.623.089-.95.445-.327.356-1.246 1.217-1.246 2.969 0 1.752 1.276 3.444 1.454 3.681.178.237 2.47 3.772 5.984 5.289 2.92 1.261 3.513 1.01 4.137.951.624-.06 2.019-.825 2.302-1.623.283-.798.283-1.482.198-1.623-.085-.141-.327-.237-.683-.415-.356-.178-2.108-1.04-2.434-1.158-.327-.118-.564-.178-.802.178-.237.356-.921 1.158-1.129 1.395-.208.237-.415.267-.771.089-.356-.178-1.503-.554-2.863-1.767-1.058-.944-1.773-2.11-1.981-2.466-.208-.356-.022-.549.156-.726.16-.16.356-.415.534-.623.178-.208.237-.356.356-.593.118-.237.06-.445-.03-.623-.089-.178-.802-1.932-1.1-2.645-.29-.696-.584-.602-.802-.613-.208-.011-.445-.011-.682-.011z"/>
</svg>