<svg class="logo-svg" xmlns="http://www.w3.org/2000/svg" viewBox="0 0 113.68 65.27" role="img"
     aria-label="hubox acoustic decor">
    <!-- Оранжевая часть -->
    <path fill="#ffffff"
          d="M7.865 16.042C8.975 15.682 10.131 15.491 11.297 15.472C14.026 15.472 16.643 16.553 18.574 18.479C20.504 20.4042 21.5903 23.017 21.594 25.743C21.594 29.578 21.594 33.413 21.594 37.248C21.4818 39.216 23.0498 40.8724 25.021 40.868C26.4606 40.8665 27.747 39.9687 28.245 38.618C28.405 38.18 28.475 37.714 28.448 37.248C28.448 29.9607 28.448 22.6734 28.448 15.386C30.7363 15.386 33.0247 15.386 35.313 15.386C35.313 22.6734 35.313 29.9607 35.313 37.248C35.4037 40.0321 34.3595 42.7336 32.42 44.733C30.479 46.7348 27.8093 47.8642 25.021 47.863C22.2333 47.8628 19.5644 46.7336 17.623 44.733C15.6841 42.7331 14.6398 40.0321 14.729 37.248C14.729 33.413 14.729 29.578 14.729 25.743C14.7301 23.8479 13.1921 22.3121 11.297 22.316C9.4019 22.3121 7.8639 23.8479 7.865 25.743C7.865 32.9947 7.865 40.2464 7.865 47.498C5.5767 47.498 3.2883 47.498 1 47.498C1 31.9987 1 16.4994 1 1C3.2883 1 5.5767 1 7.865 1C7.865 6.014 7.865 11.028 7.865 16.042ZM47.409 15.88C48.5175 15.5158 49.6753 15.3239 50.842 15.311C53.5682 15.3127 56.1825 16.3951 58.112 18.321C60.0404 20.2452 61.1254 22.8568 61.128 25.581C61.128 29.4417 61.128 33.3024 61.128 37.163C61.2665 41.4132 58.7714 45.3091 54.853 46.961C52.2852 48.0474 49.3868 48.0474 46.819 46.961C42.9025 45.3064 40.4088 41.4115 40.545 37.162C40.545 25.119 40.545 13.076 40.545 1.033C42.833 1.033 45.121 1.033 47.409 1.033C47.409 5.982 47.409 10.931 47.409 15.88ZM76.569 15.31C79.2952 15.3117 81.9095 16.3941 83.839 18.32C85.7674 20.2442 86.8524 22.8558 86.855 25.58C86.855 29.4407 86.855 33.3014 86.855 37.162C86.9448 39.9456 85.9004 42.6463 83.961 44.645C80.9995 47.7005 76.4639 48.6203 72.546 46.96C69.9802 45.874 67.9639 43.7949 66.957 41.197C66.4611 39.9114 66.2281 38.5393 66.272 37.162C66.272 33.3014 66.272 29.4407 66.272 25.58C66.2746 22.8543 67.3607 20.2415 69.291 18.317C71.2226 16.3901 73.8397 15.3083 76.569 15.31ZM98.958 16.292C98.958 18.8454 98.958 21.3987 98.958 23.952C98.958 24.86 99.319 25.732 99.963 26.374C101.3041 27.7117 103.4749 27.7117 104.816 26.374C105.4599 25.7324 105.8218 24.861 105.822 23.952C105.822 21.3987 105.822 18.8454 105.822 16.292C108.1067 16.292 110.3913 16.292 112.676 16.292C112.676 18.8454 112.676 21.3987 112.676 23.952C112.6897 26.8564 111.4742 29.631 109.33 31.59C111.4649 33.5335 112.68 36.288 112.676 39.175C112.676 41.7284 112.676 44.2817 112.676 46.835C110.3913 46.835 108.1067 46.835 105.822 46.835C105.822 44.2817 105.822 41.7284 105.822 39.175C105.7582 36.5331 102.8584 34.9509 100.6022 36.3271C99.6056 36.9351 98.9862 38.0079 98.958 39.175C98.958 41.7284 98.958 44.2817 98.958 46.835C96.6697 46.835 94.3813 46.835 92.093 46.835C92.093 44.2674 92.093 41.6997 92.093 39.132C92.0905 36.2453 93.3053 33.4914 95.439 31.547C93.3079 29.5966 92.0939 26.8409 92.093 23.952C92.093 21.3987 92.093 18.8454 92.093 16.292C94.3813 16.292 96.6697 16.292 98.958 16.292ZM50.841 22.152C49.931 22.152 49.058 22.514 48.414 23.157C47.7708 23.7995 47.409 24.671 47.408 25.58C47.408 29.4407 47.408 33.3014 47.408 37.162C47.4074 39.0573 48.9457 40.5929 50.841 40.589C51.751 40.589 52.624 40.228 53.268 39.585C53.9108 38.9424 54.2723 38.0709 54.273 37.162C54.273 33.3014 54.273 29.4407 54.273 25.58C54.273 24.672 53.911 23.8 53.268 23.157C52.6236 22.5145 51.7509 22.1535 50.841 22.152ZM76.567 22.153C74.674 22.1541 73.1389 23.687 73.135 25.58C73.135 29.4407 73.135 33.3014 73.135 37.162C73.2359 39.8044 76.1593 41.3466 78.3972 39.9381C79.357 39.334 79.9567 38.2952 80 37.162C80 33.3014 80 29.4407 80 25.58C80 24.67 79.638 23.8 78.994 23.157C78.3496 22.5145 77.4769 22.1535 76.567 22.153Z"/>
    <!-- Серая часть (текст) -->
    <path fill="#ffffff"
          d="M6.428 64.111C6.428 63.8384 6.428 63.5657 6.428 63.293C6.3416 63.3907 6.2505 63.4842 6.155 63.573C6.043 63.681 5.794 63.8257 5.408 64.007C5.0306 64.1805 4.6204 64.2709 4.205 64.272C3.4017 64.272 2.749 64.05 2.247 63.606C1.7437 63.156 1.492 62.6127 1.492 61.976C1.492 61.3187 1.7033 60.7704 2.126 60.331C2.5487 59.893 3.132 59.607 3.876 59.473C4.7267 59.3204 5.5773 59.1677 6.428 59.015C6.428 58.6784 6.3047 58.403 6.058 58.189C5.812 57.975 5.4697 57.868 5.031 57.868C4.6677 57.868 4.336 57.9374 4.036 58.076C3.7367 58.2094 3.5253 58.3487 3.402 58.494C3.3407 58.558 3.2793 58.622 3.218 58.686C2.8087 58.2774 2.3993 57.8687 1.99 57.46C2.0327 57.4034 2.0753 57.3467 2.118 57.29C2.1773 57.216 2.303 57.0907 2.495 56.914C2.693 56.7374 2.907 56.582 3.137 56.448C3.367 56.3094 3.6693 56.1837 4.044 56.071C4.4154 55.9539 4.8026 55.8945 5.192 55.895C6.208 55.895 7.0373 56.1997 7.68 56.809C8.322 57.4137 8.643 58.1764 8.643 59.097C8.643 60.7687 8.643 62.4404 8.643 64.112C7.9047 64.1117 7.1663 64.1114 6.428 64.111ZM4.783 62.466C5.2857 62.466 5.684 62.3084 5.978 61.993C6.278 61.6724 6.428 61.2284 6.428 60.661C6.428 60.5777 6.428 60.4944 6.428 60.411C5.826 60.521 5.224 60.631 4.622 60.741C4.0173 60.837 3.715 61.1394 3.715 61.648C3.715 62.1934 4.071 62.466 4.783 62.466ZM11.58 63.02C10.7187 62.18 10.288 61.201 10.288 60.083C10.288 58.965 10.7187 57.9884 11.58 57.153C12.4413 56.313 13.4633 55.893 14.646 55.893C15.0633 55.893 15.459 55.952 15.833 56.07C16.213 56.1827 16.5233 56.3194 16.764 56.48C17.004 56.6347 17.218 56.7924 17.406 56.953C17.594 57.1137 17.7307 57.2527 17.816 57.37C17.856 57.4264 17.896 57.4827 17.936 57.539C17.4707 58.0044 17.0053 58.4697 16.54 58.935C16.4757 58.8304 16.4031 58.7311 16.323 58.638C16.2263 58.5154 16.0123 58.3577 15.681 58.165C15.3703 57.9718 15.0119 57.869 14.646 57.868C14.062 57.868 13.5587 58.0847 13.136 58.518C12.7253 58.9374 12.5001 59.5041 12.511 60.091C12.511 60.701 12.7223 61.2227 13.145 61.656C13.5683 62.0894 14.0683 62.306 14.645 62.306C15.0097 62.306 15.355 62.2177 15.681 62.041C16.013 61.8644 16.2537 61.6877 16.403 61.511C16.4753 61.42 16.5477 61.329 16.62 61.238C17.0587 61.7037 17.4973 62.1694 17.936 62.635C17.8903 62.6964 17.8447 62.7577 17.799 62.819C17.6819 62.9609 17.5531 63.0926 17.414 63.213C17.2097 63.3956 16.9895 63.5596 16.756 63.703C16.4632 63.8662 16.1538 63.9976 15.833 64.095C15.459 64.213 15.0633 64.272 14.646 64.272C13.4633 64.272 12.4413 63.8547 11.58 63.02ZM21.812 58.566C21.422 58.978 21.2267 59.4864 21.226 60.091C21.226 60.6904 21.4213 61.196 21.812 61.608C22.202 62.0147 22.665 62.218 23.201 62.218C23.735 62.218 24.1977 62.0147 24.589 61.608C24.979 61.1954 25.1743 60.6897 25.175 60.091C25.175 59.4864 24.9797 58.978 24.589 58.566C24.1983 58.154 23.7357 57.948 23.201 57.948C22.6663 57.948 22.2033 58.154 21.812 58.566ZM26.194 57.153C27.0447 57.9884 27.47 58.965 27.47 60.083C27.47 61.201 27.0447 62.18 26.194 63.02C25.3487 63.8547 24.351 64.272 23.201 64.272C22.051 64.272 21.0503 63.8547 20.199 63.02C19.3483 62.18 18.923 61.201 18.923 60.083C18.923 58.965 19.3483 57.9884 20.199 57.153C21.049 56.313 22.0497 55.893 23.201 55.893C24.351 55.893 25.3487 56.313 26.194 57.153ZM34.54 64.111C34.54 63.8384 34.54 63.5657 34.54 63.293C34.4536 63.3907 34.3625 63.4842 34.267 63.573C34.1497 63.681 33.8903 63.8257 33.489 64.007C33.0956 64.1844 32.6685 64.2748 32.237 64.272C31.317 64.272 30.5653 63.9644 29.982 63.349C29.404 62.729 29.115 61.905 29.115 60.877C29.115 59.2694 29.115 57.6617 29.115 56.054C29.8533 56.054 30.5917 56.054 31.33 56.054C31.33 57.5897 31.33 59.1254 31.33 60.661C31.33 61.1097 31.477 61.4814 31.771 61.776C32.071 62.07 32.4457 62.217 32.895 62.217C33.3977 62.217 33.7963 62.0537 34.091 61.727C34.391 61.4017 34.541 60.9367 34.541 60.332C34.541 58.906 34.541 57.48 34.541 56.054C35.279 56.054 36.017 56.054 36.755 56.054C36.755 58.7397 36.755 61.4254 36.755 64.111C36.0167 64.111 35.2783 64.111 34.54 64.111ZM44.556 57.129C44.1733 57.565 43.7907 58.001 43.408 58.437C43.3582 58.3752 43.3048 58.3165 43.248 58.261C43.178 58.1864 43.028 58.09 42.798 57.972C42.5814 57.8535 42.3389 57.7903 42.092 57.788C41.7867 57.788 41.546 57.8547 41.37 57.988C41.1933 58.116 41.105 58.266 41.105 58.438C41.105 58.646 41.2307 58.8197 41.482 58.959C41.7333 59.0984 42.0383 59.224 42.397 59.336C42.7603 59.4427 43.127 59.574 43.497 59.73C43.8657 59.8794 44.1757 60.1254 44.427 60.468C44.6783 60.8047 44.804 61.2247 44.804 61.728C44.804 62.45 44.518 63.0547 43.946 63.542C43.3787 64.0287 42.5973 64.272 41.602 64.272C41.1905 64.2735 40.7804 64.2221 40.382 64.119C40.054 64.0394 39.7384 63.9152 39.444 63.75C39.2248 63.62 39.0128 63.4781 38.809 63.325C38.6703 63.2162 38.5415 63.0954 38.424 62.964C38.3867 62.9077 38.3493 62.8514 38.312 62.795C38.724 62.3857 39.136 61.9764 39.548 61.567C39.5913 61.6317 39.658 61.715 39.748 61.817C39.8453 61.913 40.0433 62.0464 40.342 62.217C40.642 62.3837 40.9523 62.467 41.273 62.467C41.6263 62.467 41.8913 62.4 42.068 62.266C42.2418 62.1423 42.3438 61.9413 42.341 61.728C42.341 61.508 42.215 61.326 41.963 61.182C41.6704 61.015 41.358 60.8857 41.033 60.797C40.6637 60.685 40.297 60.5514 39.933 60.396C39.571 60.2376 39.2558 59.9886 39.018 59.673C38.7667 59.347 38.641 58.935 38.641 58.437C38.641 57.7904 38.9407 57.2047 39.54 56.68C40.144 56.156 40.885 55.894 41.763 55.894C42.319 55.894 42.83 55.9984 43.296 56.207C43.766 56.4157 44.0923 56.619 44.275 56.817C44.3687 56.921 44.4623 57.025 44.556 57.129ZM47.436 55.155C47.436 54.6634 47.436 54.1717 47.436 53.68C48.0943 53.68 48.7527 53.68 49.411 53.68C49.411 54.528 49.411 55.376 49.411 56.224C49.9567 56.224 50.5023 56.224 51.048 56.224C51.048 56.882 51.048 57.54 51.048 58.198C50.5023 58.198 49.9567 58.198 49.411 58.198C49.411 59.2654 49.411 60.3327 49.411 61.4C49.411 61.6507 49.502 61.8647 49.684 62.042C49.8757 62.2191 50.1291 62.3142 50.39 62.307C50.534 62.307 50.673 62.2937 50.807 62.267C50.9142 62.2448 51.019 62.2124 51.12 62.17C51.1523 62.1594 51.1847 62.1487 51.217 62.138C51.217 62.7694 51.217 63.4007 51.217 64.032C50.741 64.2029 50.2376 64.2843 49.732 64.272C48.036 64.272 47.188 63.3414 47.188 61.48C47.188 60.386 47.188 59.292 47.188 58.198C46.722 58.198 46.256 58.198 45.79 58.198C45.79 57.54 45.79 56.882 45.79 56.224C46.0363 56.224 46.2827 56.224 46.529 56.224C46.7766 56.2257 47.012 56.1168 47.171 55.927C47.347 55.729 47.4353 55.4724 47.436 55.155ZM55.414 56.056C55.414 58.7417 55.414 61.4274 55.414 64.113C54.6727 64.113 53.9313 64.113 53.19 64.113C53.19 61.4274 53.19 58.7417 53.19 56.056C53.9313 56.056 54.6727 56.056 55.414 56.056ZM55.221 52.862C55.457 53.0867 55.5747 53.3864 55.574 53.761C55.574 54.1304 55.4563 54.427 55.221 54.651C54.9863 54.8764 54.6653 54.989 54.258 54.989C53.884 54.989 53.5843 54.8767 53.359 54.652C53.1397 54.4274 53.03 54.1304 53.03 53.761C53.03 53.3864 53.1423 53.0867 53.367 52.862C53.5923 52.6374 53.8893 52.525 54.258 52.525C54.6647 52.525 54.9857 52.6374 55.221 52.862ZM58.431 63.022C57.5697 62.18 57.139 61.203 57.139 60.085C57.139 58.967 57.5697 57.9904 58.431 57.155C59.2923 56.315 60.3143 55.895 61.497 55.895C61.9143 55.895 62.3103 55.954 62.685 56.072C63.065 56.1847 63.375 56.3214 63.615 56.482C63.8557 56.6367 64.07 56.7944 64.258 56.955C64.4447 57.115 64.581 57.254 64.667 57.372C64.707 57.4284 64.747 57.4847 64.787 57.541C64.3217 58.0064 63.8563 58.4717 63.391 58.937C63.3267 58.8324 63.2541 58.7331 63.174 58.64C63.078 58.5174 62.864 58.3597 62.532 58.167C62.2213 57.9738 61.8629 57.871 61.497 57.87C60.9143 57.87 60.4113 58.0867 59.988 58.52C59.5769 58.9392 59.3514 59.506 59.362 60.093C59.362 60.703 59.5733 61.2247 59.996 61.658C60.4193 62.0914 60.9193 62.308 61.496 62.308C61.8607 62.308 62.206 62.2197 62.532 62.043C62.864 61.8664 63.1047 61.6897 63.254 61.513C63.3263 61.422 63.3987 61.331 63.471 61.24C63.9097 61.7057 64.3483 62.1714 64.787 62.637C64.7417 62.6984 64.6963 62.7597 64.651 62.821C64.5339 62.9629 64.4051 63.0946 64.266 63.215C64.0617 63.3976 63.8415 63.5616 63.608 63.705C63.3727 63.8437 63.065 63.9744 62.685 64.097C62.3103 64.215 61.9143 64.274 61.497 64.274C60.3143 64.274 59.2923 63.8567 58.431 63.022ZM73.013 55.896C73.473 55.896 73.901 55.992 74.297 56.184C74.6983 56.3774 74.9817 56.5647 75.147 56.746C75.2303 56.845 75.3137 56.944 75.397 57.043C75.397 55.5637 75.397 54.0844 75.397 52.605C76.1353 52.605 76.8737 52.605 77.612 52.605C77.612 56.441 77.612 60.277 77.612 64.113C76.8737 64.113 76.1353 64.113 75.397 64.113C75.397 63.784 75.397 63.455 75.397 63.126C75.3656 63.1719 75.3305 63.215 75.292 63.255C75.2493 63.303 75.153 63.394 75.003 63.528C74.8556 63.6588 74.6973 63.7769 74.53 63.881C74.3198 63.9984 74.0962 64.0901 73.864 64.154C73.5879 64.2346 73.3016 64.275 73.014 64.274C71.97 64.274 71.063 63.87 70.293 63.062C69.5277 62.2487 69.145 61.2564 69.145 60.085C69.145 58.913 69.5277 57.923 70.293 57.115C71.063 56.3017 71.9697 55.895 73.013 55.896ZM72.026 61.681C72.4107 62.0984 72.876 62.307 73.422 62.307C73.9687 62.307 74.4343 62.0984 74.819 61.681C75.2037 61.2637 75.3963 60.7314 75.397 60.084C75.397 59.4367 75.2043 58.9067 74.819 58.494C74.4343 58.0774 73.9687 57.869 73.422 57.869C72.8773 57.869 72.412 58.0777 72.026 58.495C71.6407 58.9064 71.448 59.436 71.448 60.084C71.448 60.7314 71.6407 61.2637 72.026 61.681ZM87.475 60.822C85.53 60.822 83.585 60.822 81.64 60.822C81.726 61.2607 81.959 61.6327 82.339 61.938C82.7183 62.238 83.197 62.3877 83.775 62.387C84.1917 62.387 84.577 62.307 84.931 62.147C85.289 61.9804 85.5403 61.8144 85.685 61.649C85.7627 61.5657 85.8403 61.4824 85.918 61.399C86.3007 61.8914 86.6833 62.3837 87.066 62.876C87.0177 62.9244 86.9693 62.9727 86.921 63.021C86.851 63.0904 86.7067 63.2054 86.488 63.366C86.268 63.526 86.0353 63.6704 85.79 63.799C85.4816 63.9436 85.1583 64.0543 84.826 64.129C84.436 64.225 84.0323 64.273 83.615 64.273C82.4323 64.273 81.4237 63.8637 80.589 63.045C79.7543 62.221 79.337 61.234 79.337 60.084C79.337 58.934 79.749 57.9494 80.573 57.13C81.397 56.306 82.3837 55.894 83.533 55.894C84.685 55.894 85.643 56.2794 86.407 57.05C87.1723 57.8154 87.555 58.773 87.555 59.923C87.5283 60.2227 87.5017 60.5224 87.475 60.822ZM84.722 58.206C84.4013 57.928 84.0053 57.7887 83.534 57.788C83.0633 57.788 82.662 57.9247 82.33 58.198C82.0001 58.4781 81.76 58.8492 81.64 59.265C82.8733 59.265 84.1067 59.265 85.34 59.265C85.2629 58.8508 85.0445 58.4762 84.722 58.206ZM90.002 63.02C89.142 62.18 88.7117 61.201 88.711 60.083C88.7103 58.965 89.1407 57.9884 90.002 57.153C90.864 56.313 91.886 55.893 93.068 55.893C93.4853 55.893 93.8813 55.952 94.256 56.07C94.636 56.1827 94.946 56.3194 95.186 56.48C95.4267 56.6347 95.641 56.7924 95.829 56.953C96.0163 57.113 96.1527 57.252 96.238 57.37C96.278 57.4264 96.318 57.4827 96.358 57.539C95.8927 58.0044 95.4273 58.4697 94.962 58.935C94.898 58.8304 94.8258 58.7311 94.746 58.638C94.65 58.5154 94.4357 58.3577 94.103 58.165C93.7925 57.9713 93.434 57.8685 93.068 57.868C92.4853 57.868 91.9823 58.0847 91.559 58.518C91.1483 58.9374 90.9231 59.5041 90.934 60.091C90.934 60.701 91.145 61.2227 91.567 61.656C91.9903 62.0894 92.4903 62.306 93.067 62.306C93.4317 62.306 93.777 62.2177 94.103 62.041C94.435 61.8644 94.676 61.6877 94.826 61.511C94.898 61.42 94.97 61.329 95.042 61.238C95.481 61.7037 95.92 62.1694 96.359 62.635C96.3133 62.6964 96.2677 62.7577 96.222 62.819C96.1049 62.9609 95.9761 63.0926 95.837 63.213C95.6327 63.3956 95.4125 63.5596 95.179 63.703C94.943 63.8417 94.6353 63.9724 94.256 64.095C93.882 64.213 93.486 64.272 93.068 64.272C91.886 64.272 90.864 63.8547 90.002 63.02ZM100.234 58.566C99.844 58.978 99.649 59.4864 99.649 60.091C99.649 60.6904 99.844 61.196 100.234 61.608C100.6253 62.0147 101.0883 62.218 101.623 62.218C102.1583 62.218 102.6213 62.0147 103.012 61.608C103.402 61.1954 103.597 60.6897 103.597 60.091C103.597 59.4864 103.402 58.978 103.012 58.566C102.6207 58.154 102.1577 57.948 101.623 57.948C101.0883 57.948 100.6253 58.154 100.234 58.566ZM104.617 57.153C105.467 57.9884 105.8923 58.965 105.893 60.083C105.893 61.201 105.4677 62.18 104.617 63.02C103.771 63.8547 102.773 64.272 101.623 64.272C100.473 64.272 99.4727 63.8547 98.622 63.02C97.772 62.18 97.3467 61.201 97.346 60.083C97.346 58.965 97.7713 57.9884 98.622 57.153C99.472 56.313 100.4723 55.893 101.623 55.893C102.7737 55.893 103.7717 56.313 104.617 57.153ZM112.385 55.973C112.385 56.7144 112.385 57.4557 112.385 58.197C112.219 58.1437 111.973 58.1144 111.647 58.109C111.0637 58.109 110.6007 58.2934 110.258 58.662C109.9213 59.032 109.753 59.562 109.753 60.252C109.753 61.5387 109.753 62.8254 109.753 64.112C109.0147 64.112 108.2763 64.112 107.538 64.112C107.538 61.426 107.538 58.74 107.538 56.054C108.2763 56.054 109.0147 56.054 109.753 56.054C109.753 56.383 109.753 56.712 109.753 57.041C109.8398 56.9411 109.9305 56.8447 110.025 56.752C110.143 56.6294 110.4 56.469 110.796 56.271C111.187 56.075 111.6186 55.9732 112.056 55.974C112.1657 55.9737 112.2753 55.9734 112.385 55.973Z"/>
</svg>