<?xml version="1.0" encoding="UTF-8"?> <svg xmlns="http://www.w3.org/2000/svg" width="68" height="68" viewBox="0 0 68 68" fill="none"><g clip-path="url(#clip0_1_3629)"><path d="M20.6865 10.9383C37.3436 1.3215 56.6474 4.09161 63.9388 16.7206C71.23 29.3496 63.9767 47.4514 47.3198 57.0685C30.6627 66.6855 11.3587 63.9165 4.06718 51.2875C-3.22423 38.6584 4.0293 20.5553 20.6865 10.9383Z" stroke="#FA4616" stroke-width="1.13333"></path><path d="M41.0938 43.2664V41.7881" stroke="#4C5262" stroke-width="1.13333" stroke-linecap="round"></path><path d="M44.0469 43.2653V40.3086" stroke="#4C5262" stroke-width="1.13333" stroke-linecap="round"></path><path d="M47.5039 43.2664V41.7881" stroke="#4C5262" stroke-width="1.13333" stroke-linecap="round"></path><path d="M50.457 43.2653V40.3086" stroke="#4C5262" stroke-width="1.13333" stroke-linecap="round"></path><path d="M37.6676 43.2628L37.672 37.843C40.6337 37.8441 47.5276 37.843 50.9771 37.843C53.9656 37.843 53.9337 39.8142 53.9337 43.2636C53.8929 44.0803 53.9337 45.7275 53.9287 46.2193M37.672 37.843C37.672 38.2372 37.6669 32.094 37.6669 28.9731C37.4939 25.36 34.6839 18.1338 24.8282 18.1338C14.9726 18.1338 12.5093 27.0039 12.5095 31.4389C12.5087 39.8162 11.6079 43.2656 17.9278 43.2656C24.3383 43.2656 44.5709 43.2636 53.9337 43.2636" stroke="#4C5262" stroke-width="1.13333" stroke-linecap="round"></path><path d="M37.6415 29.4687C38.7913 27.9903 40.6161 26.1651 38.1343 23.063C36.1631 20.5994 34.6848 20.5983 33.6992 21.0916" stroke="#4C5262" stroke-width="1.13333" stroke-linecap="round"></path><circle cx="24.6195" cy="31.5462" r="7.81062" stroke="#4C5262" stroke-width="1.13333"></circle></g><defs><clipPath id="clip0_1_3629"><rect width="68" height="68" fill="white"></rect></clipPath></defs></svg> 