<?xml version="1.0" encoding="UTF-8"?> <svg xmlns="http://www.w3.org/2000/svg" width="60" height="60" viewBox="0 0 60 60" fill="none"><g clip-path="url(#clip0_10_165)"><path d="M18.253 9.65176C32.9506 1.16613 49.9832 3.61004 56.4168 14.7534C62.8504 25.8967 56.4506 41.8693 41.753 50.355C27.0555 58.8406 10.0229 56.3967 3.58926 45.2534C-2.84434 34.11 3.55549 18.1374 18.253 9.65176Z" stroke="#FA4616"></path><path d="M16.5518 17.5H22.2939C22.6564 17.4987 22.9912 17.5877 23.3066 17.7695C23.6259 17.9536 23.8571 18.188 24.0156 18.4717L24.0205 18.4795L27.6006 24.6152L27.7451 24.8633H40.624C40.8128 24.8633 40.9766 24.9278 41.1357 25.0859C41.2949 25.2442 41.3584 25.4058 41.3584 25.5908C41.3584 25.7758 41.2949 25.9375 41.1357 26.0957C40.9766 26.2539 40.8128 26.3183 40.624 26.3184H38.8896V33.0908L38.959 33.209L41.0576 36.7676L41.3486 37.2607L41.7979 36.9062C41.9836 36.7597 42.1762 36.6322 42.376 36.5234C42.6365 36.3817 42.879 36.197 43.1055 35.9766C43.435 35.7172 43.7934 35.5856 44.1934 35.5703C44.5657 35.5561 44.8737 35.6761 45.1475 35.9482C45.4111 36.2105 45.5252 36.5152 45.4951 36.9043C45.4656 37.2859 45.2949 37.6145 44.9375 37.9053L44.9336 37.9082C42.7571 39.7126 40.3489 41.0955 37.707 42.0576C35.0661 43.0193 32.3358 43.5 29.5137 43.5L28.9775 43.4941C26.3057 43.438 23.7239 42.9493 21.2305 42.0283C18.5698 41.0456 16.1513 39.6333 13.9736 37.7891L13.96 37.7773C13.6587 37.5397 13.5149 37.2558 13.501 36.8945C13.4867 36.5251 13.6067 36.2199 13.8799 35.9482L13.8789 35.9473C14.1167 35.7123 14.4249 35.5716 14.834 35.5391C15.2157 35.5087 15.5207 35.6102 15.7832 35.8398C16.0086 36.0619 16.2549 36.2621 16.5225 36.4395L17.2627 36.9307L17.7021 37.2217L17.9697 36.7676L20.0684 33.209L20.1377 33.0908V22.2168L19.3662 22.7168L16.7109 24.4346C16.4821 24.5753 16.2372 24.6318 15.957 24.6025C15.6828 24.5739 15.448 24.4632 15.2383 24.2549L14.8672 23.8867C14.6236 23.643 14.5215 23.3882 14.5215 23.1045C14.5215 22.7997 14.6191 22.5384 14.8281 22.3008L14.8311 22.2979L17.5469 19.1689L17.8994 18.7617L17.4678 18.4404L16.4951 17.7148C16.4267 17.6578 16.4098 17.6213 16.4062 17.6113C16.4047 17.607 16.3986 17.5918 16.4121 17.5479C16.4173 17.531 16.4218 17.5218 16.4238 17.5186C16.4247 17.5181 16.4267 17.5174 16.4287 17.5166C16.4328 17.5149 16.4395 17.5122 16.4492 17.5098C16.4698 17.5047 16.5029 17.5 16.5518 17.5ZM36.001 34.3291C34.9622 34.7279 33.9042 35.0157 32.8271 35.1934C31.7436 35.3721 30.6392 35.4609 29.5137 35.4609H29.5127C28.4316 35.4625 27.3378 35.374 26.2314 35.1934C25.1325 35.0139 24.0644 34.7251 23.0264 34.3281L22.6318 34.1777L22.417 34.541L20.3184 38.1006L20.0488 38.5566L20.5205 38.7988C21.9157 39.5159 23.3668 40.0333 24.873 40.3486C26.1827 40.6228 27.531 40.7763 28.917 40.8105L29.5137 40.8184C31.1132 40.82 32.664 40.6421 34.165 40.2842C35.6572 39.9283 37.0973 39.4373 38.4844 38.8105L38.9922 38.5811L38.709 38.1006L36.6104 34.541L36.3955 34.1768L36.001 34.3291Z" stroke="#4C5262"></path></g><defs><clipPath id="clip0_10_165"><rect width="60" height="60" fill="white"></rect></clipPath></defs></svg> 